<?xml version="1.0" standalone="no"?>
<!DOCTYPE svg PUBLIC "-//W3C//DTD SVG 20010904//EN"
 "http://www.w3.org/TR/2001/REC-SVG-20010904/DTD/svg10.dtd">
<svg version="1.0" xmlns="http://www.w3.org/2000/svg"
  width="32px" height="32px" viewBox="0 0 150.000000 200.000000"
 preserveAspectRatio="xMidYMid meet">

<g transform="translate(0.000000,200.000000) scale(0.100000,-0.100000)"
fill="#000000" stroke="none">
<rect x="0" fill="none" width="32" height="32"/>
<path d="M1178 1803 c-16 -4 -51 -68 -64 -117 -6 -27 -24 -46 -24 -26 0 6 -6
8 -12 4 -7 -4 -10 -4 -6 1 4 4 0 21 -8 37 -13 24 -20 29 -47 26 -25 -2 -33 -8
-35 -26 -3 -20 0 -23 16 -18 23 8 45 -15 67 -68 17 -39 14 -47 -19 -59 -16 -5
-10 -66 7 -85 13 -14 17 -38 17 -95 l0 -76 -32 -3 c-44 -4 -67 -48 -68 -130
-1 -35 1 -79 4 -99 4 -23 0 -43 -9 -55 -13 -18 -14 -17 -28 16 -15 35 -14 50
4 50 5 0 9 -17 9 -37 1 -26 3 -33 9 -23 9 17 3 90 -8 90 -4 0 -21 -13 -36 -29
l-29 -28 -28 44 c-16 24 -41 51 -57 60 l-28 17 45 60 c25 34 57 72 73 86 15
14 32 42 37 62 9 32 7 41 -14 70 -14 18 -28 31 -32 28 -4 -3 -8 10 -10 28 -4
38 -20 41 -52 7 -31 -33 -40 -32 -40 5 0 23 -5 31 -24 36 -28 7 -43 32 -18 30
9 0 23 -8 30 -16 12 -13 13 -13 8 2 -3 9 0 19 7 22 7 2 -6 5 -29 5 l-41 1 -2
-56 c-1 -31 4 -62 10 -70 9 -11 8 -14 -5 -14 -11 0 -14 -4 -10 -12 6 -10 5
-10 -8 -1 -8 7 -17 10 -21 7 -3 -3 -3 14 0 38 3 24 2 40 -2 36 -4 -4 -14 0
-21 10 -12 15 -15 15 -24 2 -5 -8 -10 -10 -10 -5 0 6 5 16 12 23 9 9 15 7 25
-6 13 -15 14 -15 10 -1 -3 9 0 22 6 28 9 10 5 10 -17 1 -16 -6 -55 -33 -86
-60 -32 -28 -60 -50 -62 -50 -3 0 2 22 11 49 9 32 23 54 38 62 21 11 22 14 7
22 -32 18 -104 19 -130 2 -14 -9 -23 -19 -20 -22 3 -4 14 1 24 11 20 17 55 17
73 -1 19 -19 1 -30 -41 -28 -26 1 -39 -2 -37 -9 2 -6 12 -10 23 -9 25 2 54
-15 54 -31 0 -17 -37 -28 -45 -12 -4 8 -6 8 -11 -1 -3 -6 -17 -10 -32 -7 -23
3 -24 2 -9 -6 20 -13 24 -64 5 -58 -7 3 -21 20 -30 39 -14 29 -15 36 -2 45 8
6 14 15 14 19 0 4 -7 2 -15 -5 -8 -6 -20 -8 -26 -4 -8 5 -9 3 -4 -5 4 -7 11
-38 15 -69 15 -104 37 -227 44 -243 4 -9 25 -24 47 -34 21 -10 39 -22 39 -27
0 -4 7 -8 15 -8 8 0 22 -11 31 -25 14 -22 14 -29 -1 -82 -20 -66 -20 -128 -3
-225 l12 -67 43 6 c33 4 43 2 43 -8 0 -10 -12 -14 -39 -13 l-39 2 -7 -47 c-4
-25 -14 -54 -22 -63 -9 -10 -11 -18 -5 -18 6 0 13 6 15 13 4 9 7 9 15 -1 9
-14 73 -26 70 -14 -3 11 12 94 24 131 15 49 29 19 30 -68 0 -77 -6 -94 -31
-86 -10 3 -24 -1 -31 -10 -7 -8 -21 -15 -31 -15 -17 0 -56 -19 -117 -57 -15
-9 -5 4 22 30 28 26 53 47 57 47 4 0 10 4 14 9 3 5 -7 8 -22 7 -16 -2 -28 -8
-28 -14 0 -15 -148 -151 -157 -146 -5 3 -8 0 -8 -7 0 -6 16 -27 35 -45 25 -23
49 -35 83 -40 26 -3 52 -9 57 -13 12 -7 114 -8 110 -1 -6 9 200 3 224 -7 52
-21 180 43 194 96 7 29 -30 65 -69 65 -18 0 -29 3 -23 6 13 9 -22 31 -85 55
-27 11 -64 34 -83 52 -46 46 -47 80 -6 212 25 83 27 147 8 221 -3 14 5 3 19
-23 39 -76 43 -79 77 -62 15 9 33 25 40 36 14 27 22 19 11 -12 -6 -16 -5 -39
3 -66 13 -44 5 -74 -31 -114 -22 -25 -18 -49 9 -49 23 0 57 27 57 46 0 4 -7
-2 -16 -14 -8 -12 -21 -22 -29 -22 -21 0 -30 22 -14 34 31 24 50 73 39 101
-15 40 -12 84 9 119 22 37 35 96 21 96 -6 0 -10 7 -10 15 0 19 24 19 40 0 15
-18 7 -83 -15 -125 -11 -20 -12 -36 -5 -61 7 -23 6 -46 -5 -81 -8 -27 -10 -46
-6 -43 12 7 24 69 26 135 3 73 26 160 42 160 10 0 13 -60 13 -301 0 -197 3
-298 10 -294 6 3 10 -1 10 -10 0 -9 -4 -13 -10 -10 -6 4 -10 -5 -10 -19 0 -19
5 -26 20 -26 20 0 20 7 20 313 l0 314 25 11 c14 7 29 20 32 29 4 10 13 24 20
32 8 7 13 23 12 35 -1 11 2 29 6 39 4 11 2 29 -6 44 -11 21 -19 24 -51 21
l-38 -4 0 98 c0 54 4 98 8 98 9 0 32 44 32 60 0 5 -11 21 -23 37 l-24 28 44
93 44 92 70 0 c56 0 69 -3 69 -16 0 -9 6 -14 13 -11 6 2 12 17 12 33 0 27 -3
29 -42 32 -26 2 -43 -1 -43 -7 0 -6 -8 -11 -17 -11 -15 0 -16 2 -3 10 11 7 6
9 -20 9 -19 -1 -43 -3 -52 -6z m42 -7 c0 -2 -9 -6 -20 -9 -11 -3 -18 -1 -14 4
5 9 34 13 34 5z m104 -7 c-4 -7 -44 0 -44 7 0 2 11 3 24 2 14 -1 23 -5 20 -9z
m-183 -96 c-12 -20 -14 -14 -5 12 4 9 9 14 11 11 3 -2 0 -13 -6 -23z m-51
-157 c0 -3 -4 -8 -10 -11 -5 -3 -10 -1 -10 4 0 6 5 11 10 11 6 0 10 -2 10 -4z
m-487 -43 c3 -17 8 -36 11 -42 9 -13 -56 -25 -91 -16 l-27 6 39 32 c21 18 43
37 49 43 14 15 13 15 19 -23z m257 17 c0 -15 -7 -20 -27 -20 -25 0 -26 0 -8
20 10 11 22 20 27 20 4 0 8 -9 8 -20z m-110 0 c0 -5 -2 -10 -4 -10 -3 0 -8 5
-11 10 -3 6 -1 10 4 10 6 0 11 -4 11 -10z m-100 -19 c0 -6 -4 -13 -10 -16 -5
-3 -10 1 -10 9 0 9 5 16 10 16 6 0 10 -4 10 -9z m229 -32 c12 -11 21 -16 21
-12 0 4 5 0 11 -9 11 -20 -6 -98 -24 -110 -6 -4 -20 -2 -30 4 -12 6 -17 6 -13
0 3 -5 0 -12 -8 -15 -16 -6 -41 11 -49 33 -4 10 -6 7 -6 -7 -1 -13 -5 -23 -11
-23 -5 0 -10 -5 -10 -11 0 -5 4 -8 8 -5 5 3 26 0 47 -5 38 -11 38 -11 19 -28
-11 -9 -26 -28 -33 -42 -21 -42 -105 -62 -167 -39 -15 6 -40 25 -56 43 -22 24
-26 26 -14 7 12 -21 13 -30 3 -49 -14 -29 -43 -48 -54 -37 -4 4 0 12 10 17 9
6 17 17 17 24 0 8 6 15 13 15 6 0 -7 9 -30 20 -29 13 -43 25 -43 38 0 11 -7
38 -14 60 -13 37 -21 95 -17 130 2 19 29 14 40 -7 6 -10 8 -21 4 -24 -7 -8 25
-117 39 -132 5 -5 5 2 -1 18 -6 15 -9 27 -7 27 2 0 37 -19 78 -42 78 -46 157
-60 188 -33 8 7 22 15 30 18 8 4 -25 6 -75 5 -76 -1 -99 3 -145 24 -56 25 -90
51 -90 69 0 6 10 5 23 -2 18 -10 16 -7 -7 15 -31 29 -30 45 2 25 12 -8 29 -9
48 -4 16 4 39 7 51 6 11 -1 24 3 28 8 3 6 13 11 21 11 18 0 -58 -77 -83 -83
-11 -3 -6 -5 13 -6 17 0 34 -4 38 -8 9 -10 78 -33 96 -32 10 0 11 2 3 6 -7 2
-14 17 -14 31 -2 24 -2 24 -6 5 -5 -25 -33 -32 -33 -9 0 8 -4 18 -10 21 -6 3
-7 -1 -4 -9 7 -19 -9 -21 -24 -3 -12 15 2 57 19 57 7 0 27 11 45 25 62 48 127
57 163 24z m-460 -55 c-9 -11 -8 -14 5 -14 18 0 21 -15 5 -26 -14 -8 -29 14
-29 43 0 16 4 21 15 17 12 -5 13 -10 4 -20z m668 -51 c-3 -10 -5 -4 -5 12 0
17 2 24 5 18 2 -7 2 -21 0 -30z m-641 -18 c3 -19 -20 -19 -35 -1 -10 11 -8 15
6 18 21 5 26 2 29 -17z m18 -32 c3 -4 -4 -13 -16 -20 -20 -12 -20 -13 -3 -11
12 2 21 -4 23 -14 2 -13 -2 -16 -17 -13 -32 6 -38 13 -38 40 0 19 5 25 22 25
12 0 25 -3 29 -7z m620 -70 c6 -24 13 -43 17 -43 4 0 5 8 2 18 -3 13 6 24 32
38 36 19 37 19 51 0 20 -28 18 -41 -11 -54 -15 -7 -25 -20 -25 -32 0 -11 -4
-20 -10 -20 -5 0 -10 -5 -10 -11 0 -8 5 -8 15 1 8 7 15 19 15 26 0 8 7 14 15
14 8 0 15 -6 15 -14 0 -8 -7 -16 -15 -20 -8 -3 -15 -14 -15 -25 0 -10 -9 -21
-20 -24 -11 -3 -20 -1 -20 4 0 5 -6 9 -14 9 -7 0 -16 11 -18 25 -5 22 -2 25
14 19 19 -6 19 -5 1 13 -27 29 -45 18 -37 -23 5 -28 3 -34 -11 -34 -9 0 -29
10 -44 23 l-28 22 32 10 c30 9 31 12 23 43 -5 17 -13 32 -19 32 -6 0 -6 -8 1
-21 15 -27 6 -49 -20 -49 -25 0 -26 29 -3 82 15 34 21 39 48 36 26 -3 31 -8
39 -45z m-624 -5 c0 -4 -2 -8 -4 -8 -2 0 -11 -2 -19 -5 -8 -4 -14 0 -14 9 0 8
9 14 19 13 10 -1 18 -5 18 -9z m14 -25 c-10 -7 -14 -13 -8 -13 14 0 30 13 35
27 3 8 9 9 19 3 12 -7 12 -13 4 -27 -15 -23 -35 -27 -58 -10 -19 14 -19 14 0
33 10 11 21 16 23 10 2 -5 -4 -15 -15 -23z m126 -22 c0 -20 -23 -44 -46 -47
-9 -1 -5 10 11 30 14 18 22 36 17 41 -4 5 -1 5 6 1 6 -4 12 -15 12 -25z m40
-11 c-13 -8 -12 -10 5 -11 11 -1 31 -2 45 -1 16 0 19 -1 7 -5 -12 -3 -16 -11
-12 -24 8 -23 -4 -24 -51 -4 -31 13 -34 17 -24 35 6 11 18 20 28 20 15 0 15
-2 2 -10z m146 -40 c-1 -29 -10 -38 -20 -22 -7 11 4 52 14 52 4 0 7 -13 6 -30z
m-56 0 c0 -5 -7 -10 -15 -10 -8 0 -15 5 -15 10 0 6 7 10 15 10 8 0 15 -4 15
-10z m84 -22 c-4 -28 -3 -30 5 -10 14 30 23 28 18 -5 -2 -16 -2 -22 0 -15 6
17 20 15 27 -3 3 -9 -1 -18 -9 -21 -23 -9 -18 -23 7 -16 17 4 20 2 15 -11 -3
-9 0 -18 9 -21 21 -8 14 -60 -8 -64 -17 -3 -18 20 -3 51 4 6 0 4 -8 -5 -17
-22 -27 -23 -27 -4 0 8 -10 31 -21 51 -28 47 -36 105 -14 105 11 0 13 -8 9
-32z m-160 -9 c14 -11 26 -29 26 -39 0 -19 -1 -19 -42 -1 -29 12 -44 25 -46
39 -4 29 26 29 62 1z m96 -13 c0 -6 -12 -13 -27 -14 -31 -2 -51 20 -25 29 22
8 52 -1 52 -15z m-125 -36 c86 -27 83 -56 -3 -33 -31 8 -59 16 -60 18 -2 2 -1
13 3 26 4 12 10 17 14 12 3 -6 24 -16 46 -23z m462 -7 c-3 -10 -5 -4 -5 12 0
17 2 24 5 18 2 -7 2 -21 0 -30z m-309 0 c2 -8 -5 -13 -17 -13 -12 0 -21 -4
-21 -9 0 -12 -49 1 -50 14 -2 23 80 30 88 8z m148 -18 c3 -14 3 -33 -1 -42 -5
-15 -9 -13 -19 12 -13 31 -11 55 5 55 5 0 11 -11 15 -25z m-276 -29 c46 -21
30 -37 -42 -42 -72 -5 -74 -3 -62 43 5 18 11 21 42 16 21 -3 48 -11 62 -17z
m143 -17 c5 -20 3 -20 -46 -14 -59 8 -80 21 -57 35 8 5 17 5 20 0 3 -5 17 -3
30 4 28 14 45 6 53 -25z m294 -11 c-2 -13 -4 -5 -4 17 -1 22 1 32 4 23 2 -10
2 -28 0 -40z m-287 -39 c0 -21 -8 -22 -64 -9 -30 6 -44 5 -62 -6 -14 -10 -41
-14 -75 -12 -43 2 -55 7 -57 22 -3 15 0 18 18 13 12 -3 33 -1 47 6 18 8 32 8
54 0 16 -6 29 -7 29 -3 0 12 27 16 72 12 29 -3 38 -8 38 -23z m-8 -35 c4 -3 8
-12 8 -21 0 -12 -6 -13 -27 -7 -16 4 -43 8 -62 8 -37 1 -53 21 -24 29 19 6 91
0 105 -9z m-129 -18 c27 -21 20 -27 -29 -23 -25 2 -47 0 -50 -5 -3 -4 13 -8
36 -8 25 0 39 -4 35 -10 -3 -5 -1 -10 4 -10 6 0 11 -7 11 -16 0 -12 -5 -14
-17 -8 -10 4 -35 8 -55 9 -44 1 -55 9 -38 30 11 13 10 14 -4 9 -11 -4 -16 -1
-16 14 0 13 8 22 23 25 45 9 82 6 100 -7z m93 -19 c14 -5 22 -16 22 -31 l0
-24 -35 20 c-26 16 -37 18 -46 9 -8 -8 -6 -11 9 -11 11 0 29 -7 40 -15 18 -13
16 -14 -23 -15 -24 0 -43 -4 -43 -9 0 -4 11 -6 25 -3 27 5 59 -14 49 -30 -3
-5 -20 -7 -37 -4 l-32 6 30 -11 c39 -15 38 -13 30 -47 -5 -24 -10 -28 -31 -24
-31 6 -25 28 7 25 23 -1 23 -1 -2 9 -46 19 -56 91 -22 145 14 21 21 23 59 10z
m-122 -68 c14 -7 22 -17 19 -25 -4 -10 -10 -11 -25 -3 -15 8 -27 8 -44 0 -27
-12 -29 -9 -14 20 12 22 28 24 64 8z m453 -71 c-2 -13 -4 -5 -4 17 -1 22 1 32
4 23 2 -10 2 -28 0 -40z m-457 -12 c0 -13 -21 -15 -58 -7 -2 1 0 6 3 11 10 16
55 12 55 -4z m-17 -25 c4 -1 7 -10 7 -22 0 -11 -4 -17 -10 -14 -14 9 -13 -8 2
-23 9 -9 6 -12 -15 -12 -28 0 -37 14 -14 23 7 3 4 6 -7 6 -12 1 -16 6 -12 17
3 9 6 19 6 24 0 4 8 7 18 5 9 -2 20 -4 25 -4z m121 -27 c25 -9 19 -24 -9 -24
-16 0 -25 6 -25 15 0 16 9 19 34 9z m-1 -41 c-7 -2 -13 -9 -13 -14 0 -6 4 -8
9 -5 5 4 16 3 25 0 13 -5 14 -9 5 -20 -9 -12 -9 -13 4 -9 8 4 30 -1 48 -10
l32 -17 -29 -24 c-16 -13 -32 -23 -36 -24 -4 0 -10 -10 -13 -21 -7 -21 -8 -21
-35 7 -25 27 -50 66 -50 77 0 3 9 7 20 10 23 6 24 3 10 -24 -6 -10 -7 -19 -2
-19 4 0 15 16 24 36 13 29 14 34 2 30 -44 -18 -49 -19 -37 -6 6 7 9 19 6 26
-3 10 2 14 18 13 13 0 18 -3 12 -6z m-93 -53 c0 -5 -5 -10 -11 -10 -5 0 -7 5
-4 10 3 6 8 10 11 10 2 0 4 -4 4 -10z m447 -42 c-3 -8 -6 -5 -6 6 -1 11 2 17
5 13 3 -3 4 -12 1 -19z m-467 -7 c-1 -3 -21 -19 -45 -34 -25 -16 -45 -33 -45
-38 0 -5 25 9 55 31 31 23 60 38 66 35 7 -5 6 -11 -2 -21 -14 -17 -5 -18 21
-2 15 10 22 10 32 0 9 -9 9 -12 -1 -12 -7 0 -9 -4 -6 -10 3 -5 15 -10 26 -10
27 0 24 -17 -10 -51 -17 -17 -40 -29 -55 -29 -22 0 -26 4 -26 29 0 16 6 32 13
34 7 4 6 6 -5 6 -9 1 -18 -4 -20 -9 -3 -11 -48 -14 -118 -6 -25 3 -52 6 -60 6
-9 1 -4 6 10 12 14 6 28 10 33 10 4 -1 7 3 7 8 0 6 6 10 13 8 15 -3 87 31 87
41 0 4 7 8 15 8 8 0 15 -3 15 -6z m273 -8 c-7 -2 -19 -2 -25 0 -7 3 -2 5 12 5
14 0 19 -2 13 -5z m23 -32 c-5 -8 21 -12 87 -12 9 0 17 -5 17 -10 0 -6 -5 -7
-11 -3 -8 4 -9 0 -4 -15 4 -12 2 -21 -4 -21 -6 0 -11 9 -11 20 0 17 -3 18 -24
9 -17 -8 -29 -8 -44 0 -26 14 -42 14 -42 1 0 -5 3 -9 8 -9 20 3 32 -2 26 -13
-4 -6 -3 -8 4 -4 17 10 24 -11 10 -34 -14 -21 -71 -29 -83 -10 -4 7 -13 6 -26
-1 -21 -11 -49 -6 -49 9 0 5 21 30 46 55 34 35 54 47 76 47 16 0 27 -4 24 -9z
m67 -78 c-3 -7 -11 -13 -19 -13 -17 0 -19 37 -1 43 15 5 27 -12 20 -30z m-536
8 c0 -11 -6 -17 -14 -14 -14 6 -17 16 -6 26 12 13 22 7 20 -12z m52 -8 c0 -16
-3 -22 -6 -15 -2 6 -11 12 -19 12 -20 0 -17 18 4 23 9 3 18 5 20 6 1 0 2 -11
1 -26z m55 1 c7 -18 -11 -37 -28 -31 -24 9 -21 46 4 44 11 -1 21 -6 24 -13z
m66 -15 c0 -14 -7 -19 -25 -19 -29 0 -34 24 -8 39 22 12 33 5 33 -20z"/>
<path d="M824 1442 c-12 -10 -26 -27 -33 -39 -19 -37 -12 -38 12 -2 17 25 30
33 48 32 13 -1 18 1 11 3 -6 3 -10 10 -6 15 9 15 -9 10 -32 -9z"/>
<path d="M880 1426 c0 -2 8 -10 18 -17 15 -13 16 -12 3 4 -13 16 -21 21 -21
13z"/>
<path d="M598 1250 c63 -32 118 -45 127 -30 3 5 -4 7 -16 5 -12 -3 -51 9 -86
25 -84 39 -104 39 -25 0z"/>
<path d="M780 1240 c-9 -6 -10 -10 -3 -10 6 0 15 5 18 10 8 12 4 12 -15 0z"/>
<path d="M765 529 c-4 -6 -5 -12 -2 -15 2 -3 7 2 10 11 7 17 1 20 -8 4z"/>
<path d="M849 413 c-13 -16 -12 -17 4 -4 16 13 21 21 13 21 -2 0 -10 -8 -17
-17z"/>
<path d="M886 393 c-6 -14 -5 -15 5 -6 7 7 10 15 7 18 -3 3 -9 -2 -12 -12z"/>
<path d="M685 1720 c-4 -6 -15 -8 -26 -5 -11 4 -36 -4 -62 -19 -47 -28 -82
-32 -120 -15 -28 13 -60 0 -77 -30 -7 -14 -6 -20 6 -25 8 -3 13 -2 9 3 -7 13
4 39 21 45 21 8 44 -4 44 -23 0 -10 3 -12 8 -5 4 7 27 12 52 12 34 1 48 6 62
24 10 13 18 19 17 13 -3 -22 2 -29 11 -15 7 11 27 15 75 15 36 0 65 2 65 4 0
2 -8 10 -17 17 -22 16 -59 18 -68 4z m-28 -16 c-3 -3 -12 -4 -19 -1 -8 3 -5 6
6 6 11 1 17 -2 13 -5z"/>
<path d="M787 1669 c7 -7 15 -10 18 -7 3 3 -2 9 -12 12 -14 6 -15 5 -6 -5z"/>
<path d="M638 1650 c-15 -4 -29 -5 -32 -2 -3 3 -6 0 -6 -6 0 -5 -3 -19 -6 -29
-4 -13 0 -12 16 7 20 23 29 25 107 25 78 0 86 -2 105 -25 l20 -25 -23 -6 c-22
-6 -22 -7 -3 -8 30 -1 35 8 19 39 -10 20 -24 29 -52 34 -50 8 -111 6 -145 -4z"/>
<path d="M352 1570 c0 -14 2 -19 5 -12 2 6 2 18 0 25 -3 6 -5 1 -5 -13z"/>
<path d="M851 1564 c0 -11 3 -14 6 -6 3 7 2 16 -1 19 -3 4 -6 -2 -5 -13z"/>
</g>
</svg>
